<svg width="137" height="43" viewBox="0 0 137 43" fill="none" xmlns="http://www.w3.org/2000/svg">
<path d="M23.1289 3.51172C23.0247 4.04557 22.7708 4.57292 22.3672 5.09375C21.9766 5.60156 21.5339 6.03776 21.0391 6.40234C20.974 6.46745 20.8438 6.53906 20.6484 6.61719C20.4661 6.69531 20.2643 6.77995 20.043 6.87109C19.8346 6.94922 19.6263 7.02083 19.418 7.08594C19.2096 7.15104 19.0469 7.1901 18.9297 7.20312C18.8255 7.22917 18.7409 7.22266 18.6758 7.18359C18.6237 7.14453 18.5716 7.09896 18.5195 7.04688C18.4674 6.99479 18.4023 6.94922 18.3242 6.91016C18.2591 6.85807 18.1615 6.83203 18.0312 6.83203C17.875 6.83203 17.7773 6.79948 17.7383 6.73438C17.7122 6.65625 17.7318 6.51953 17.7969 6.32422C17.8229 6.25911 17.8685 6.16797 17.9336 6.05078C17.9987 5.93359 18.1029 5.78385 18.2461 5.60156C18.3503 5.48438 18.4349 5.35417 18.5 5.21094C18.5781 5.06771 18.5911 4.9375 18.5391 4.82031C18.5 4.6901 18.3763 4.58594 18.168 4.50781C17.9596 4.42969 17.6341 4.39062 17.1914 4.39062C16.7357 4.39062 16.1497 4.44922 15.4336 4.56641C14.6523 4.67057 13.8385 4.86589 12.9922 5.15234C12.1589 5.4388 11.3451 5.77083 10.5508 6.14844C9.76953 6.52604 9.04688 6.92969 8.38281 7.35938C7.71875 7.78906 7.17188 8.21224 6.74219 8.62891C6.32552 9.03255 6.05859 9.41667 5.94141 9.78125C5.82422 10.1328 5.92188 10.4193 6.23438 10.6406C6.50781 10.8359 6.92448 11.0052 7.48438 11.1484C8.04427 11.2786 8.6888 11.4023 9.41797 11.5195C10.1471 11.6237 10.9284 11.7409 11.7617 11.8711C12.5951 11.9883 13.4219 12.1315 14.2422 12.3008C15.0755 12.4701 15.8633 12.6784 16.6055 12.9258C17.3607 13.1732 18.0247 13.4792 18.5977 13.8438C19.0013 14.1172 19.3398 14.3776 19.6133 14.625C19.8867 14.8724 20.1081 15.1198 20.2773 15.3672C20.4466 15.6016 20.5833 15.8359 20.6875 16.0703C20.7917 16.2917 20.8828 16.5195 20.9609 16.7539C21.013 16.8971 21.1042 17.0599 21.2344 17.2422C21.3776 17.4115 21.5273 17.6198 21.6836 17.8672C21.8398 18.1146 21.9831 18.401 22.1133 18.7266C22.2435 19.0391 22.3281 19.4102 22.3672 19.8398C22.4193 20.6992 22.2435 21.513 21.8398 22.2812C21.4492 23.0495 20.9349 23.7591 20.2969 24.4102C19.6719 25.0612 18.9753 25.6471 18.207 26.168C17.4388 26.6758 16.7031 27.099 16 27.4375C15.388 27.737 14.737 28.0169 14.0469 28.2773C13.3568 28.5378 12.6471 28.7656 11.918 28.9609C11.1888 29.1432 10.4466 29.2865 9.69141 29.3906C8.94922 29.5078 8.21354 29.5664 7.48438 29.5664C6.27344 29.5664 5.13411 29.3971 4.06641 29.0586C3.01172 28.7331 2.09375 28.1797 1.3125 27.3984C0.934896 26.9948 0.661458 26.5911 0.492188 26.1875C0.322917 25.7708 0.238281 25.3607 0.238281 24.957C0.238281 24.4753 0.335938 24.0065 0.53125 23.5508C0.726562 23.0951 0.980469 22.6654 1.29297 22.2617C1.60547 21.8581 1.95052 21.5 2.32812 21.1875C2.70573 20.862 3.07682 20.6016 3.44141 20.4062C3.94922 20.1198 4.47656 19.8464 5.02344 19.5859C5.58333 19.3125 6.14323 19.0716 6.70312 18.8633C7.26302 18.6419 7.82292 18.4596 8.38281 18.3164C8.94271 18.1732 9.48307 18.082 10.0039 18.043C10.2253 18.0169 10.5052 17.9909 10.8438 17.9648C11.1823 17.9388 11.5013 17.9258 11.8008 17.9258C11.9961 17.9258 12.1589 17.9779 12.2891 18.082C12.4193 18.1862 12.4714 18.2773 12.4453 18.3555C12.3802 18.4987 12.263 18.5703 12.0938 18.5703C11.9375 18.5703 11.7487 18.5964 11.5273 18.6484C11.2799 18.7135 11.0326 18.7591 10.7852 18.7852C10.5378 18.8112 10.3164 18.8568 10.1211 18.9219C8.63672 19.2604 7.38021 19.6901 6.35156 20.2109C5.33594 20.7318 4.52214 21.2591 3.91016 21.793C3.3112 22.3268 2.90104 22.8346 2.67969 23.3164C2.45833 23.7852 2.39323 24.1432 2.48438 24.3906C2.61458 24.7422 2.85547 25.0156 3.20703 25.2109C3.55859 25.4062 3.95573 25.5495 4.39844 25.6406C4.84115 25.7188 5.29036 25.7643 5.74609 25.7773C6.20182 25.7904 6.59245 25.7839 6.91797 25.7578C7.67318 25.7188 8.51302 25.6081 9.4375 25.4258C10.375 25.2435 11.319 25.0026 12.2695 24.7031C13.2331 24.4036 14.1706 24.0521 15.082 23.6484C15.9935 23.2318 16.8008 22.7826 17.5039 22.3008C18.207 21.806 18.7734 21.2786 19.2031 20.7188C19.6328 20.1458 19.8477 19.5469 19.8477 18.9219C19.8477 18.7135 19.8151 18.5117 19.75 18.3164C19.6979 18.1081 19.6198 17.8932 19.5156 17.6719C19.3203 17.2943 18.9492 16.9753 18.4023 16.7148C17.8555 16.4414 17.1979 16.2135 16.4297 16.0312C15.6745 15.8359 14.8477 15.6667 13.9492 15.5234C13.0638 15.3672 12.1849 15.2109 11.3125 15.0547C10.4531 14.8984 9.63281 14.7227 8.85156 14.5273C8.07031 14.332 7.41276 14.0911 6.87891 13.8047C6.27995 13.4792 5.83724 13.1602 5.55078 12.8477C5.27734 12.5221 5.12109 12.1185 5.08203 11.6367C5.06901 11.5846 5.02995 11.4935 4.96484 11.3633C4.89974 11.2331 4.82161 11.0964 4.73047 10.9531C4.65234 10.8099 4.57422 10.6732 4.49609 10.543C4.41797 10.4128 4.35938 10.3086 4.32031 10.2305C4.11198 9.85286 4.00781 9.44271 4.00781 9C4.00781 8.50521 4.11849 7.9974 4.33984 7.47656C4.57422 6.95573 4.86068 6.50651 5.19922 6.12891C5.82422 5.41276 6.64453 4.7487 7.66016 4.13672C8.6888 3.52474 9.80859 2.99089 11.0195 2.53516C12.2305 2.07943 13.474 1.71484 14.75 1.44141C16.0391 1.15495 17.2565 0.992188 18.4023 0.953125C18.8711 0.940104 19.3984 0.972656 19.9844 1.05078C20.5703 1.12891 21.1107 1.27214 21.6055 1.48047C22.1133 1.67578 22.5169 1.94271 22.8164 2.28125C23.1159 2.60677 23.2201 3.01693 23.1289 3.51172ZM38.4078 23.0039C38.4078 23.7461 38.2451 24.5013 37.9195 25.2695C37.594 26.0378 37.1318 26.7409 36.5328 27.3789C35.9469 28.0039 35.2307 28.5182 34.3844 28.9219C33.538 29.3255 32.5875 29.5273 31.5328 29.5273C30.6734 29.5273 29.801 29.3451 28.9156 28.9805C28.0432 28.6159 27.2555 28.0951 26.5523 27.418C25.8492 26.7279 25.2763 25.8945 24.8336 24.918C24.3909 23.9414 24.1695 22.8477 24.1695 21.6367C24.1695 20.4388 24.3974 19.306 24.8531 18.2383C25.3219 17.1576 25.9339 16.2201 26.6891 15.4258C27.4443 14.6185 28.3036 13.9805 29.2672 13.5117C30.2437 13.043 31.2464 12.8086 32.275 12.8086C33.2255 12.8086 34.0263 12.9388 34.6773 13.1992C35.3414 13.4466 35.8753 13.7461 36.2789 14.0977C36.6826 14.4362 36.969 14.7878 37.1383 15.1523C37.3206 15.5169 37.4117 15.8099 37.4117 16.0312C37.4117 16.526 37.3076 16.9297 37.0992 17.2422C36.8909 17.5547 36.65 17.7891 36.3766 17.9453C36.1161 18.1016 35.8622 18.1927 35.6148 18.2188C35.3805 18.2318 35.2307 18.1862 35.1656 18.082C35.1135 18.0299 35.0549 18.0039 34.9898 18.0039C34.9378 18.0039 34.8792 18.0169 34.8141 18.043C34.749 18.069 34.6839 18.0951 34.6187 18.1211C34.5667 18.1471 34.5211 18.1471 34.482 18.1211C34.4169 18.0951 34.4104 18.0365 34.4625 17.9453C34.5276 17.8542 34.5602 17.776 34.5602 17.7109C34.5602 17.5938 34.5536 17.4635 34.5406 17.3203C34.5406 17.1641 34.5732 17.0013 34.6383 16.832C34.7555 16.5977 34.801 16.3438 34.775 16.0703C34.762 15.7839 34.6643 15.5169 34.482 15.2695C34.3128 15.0221 34.0393 14.8138 33.6617 14.6445C33.2971 14.4753 32.8219 14.3906 32.2359 14.3906C31.8193 14.3906 31.3245 14.5273 30.7516 14.8008C30.1786 15.0742 29.6318 15.5039 29.1109 16.0898C28.6031 16.6628 28.1669 17.3984 27.8023 18.2969C27.4508 19.1823 27.275 20.2435 27.275 21.4805C27.275 22.0143 27.3401 22.5742 27.4703 23.1602C27.6135 23.7461 27.8609 24.2865 28.2125 24.7812C28.5641 25.276 29.0393 25.6862 29.6383 26.0117C30.2372 26.3242 30.999 26.4805 31.9234 26.4805C32.5354 26.4805 33.0953 26.3958 33.6031 26.2266C34.124 26.0573 34.5927 25.8424 35.0094 25.582C35.426 25.3216 35.7971 25.0352 36.1227 24.7227C36.4482 24.4102 36.7216 24.1172 36.943 23.8438C37.1643 23.5573 37.3336 23.3099 37.4508 23.1016C37.581 22.8932 37.6591 22.763 37.6852 22.7109C37.7372 22.6458 37.8023 22.6003 37.8805 22.5742C37.9586 22.5352 38.0367 22.5286 38.1148 22.5547C38.193 22.5677 38.2581 22.6133 38.3102 22.6914C38.3753 22.7565 38.4078 22.8607 38.4078 23.0039ZM52.9445 21.8711C52.9445 22.0143 52.951 22.1836 52.9641 22.3789C52.9771 22.5742 52.9836 22.7956 52.9836 23.043C52.9836 23.3555 52.938 23.7461 52.8469 24.2148C52.7557 24.6706 52.606 25.1523 52.3977 25.6602C52.2023 26.168 51.9354 26.6758 51.5969 27.1836C51.2583 27.6914 50.8417 28.1471 50.3469 28.5508C49.8521 28.9544 49.2661 29.2799 48.5891 29.5273C47.925 29.7878 47.1633 29.918 46.3039 29.918C45.5357 29.918 44.7479 29.7682 43.9406 29.4688C43.1464 29.1823 42.4172 28.7331 41.7531 28.1211C41.1021 27.4961 40.5617 26.7083 40.132 25.7578C39.7154 24.7943 39.507 23.6484 39.507 22.3203C39.507 21.487 39.6112 20.6667 39.8195 19.8594C40.0409 19.0521 40.3273 18.2904 40.6789 17.5742C41.0435 16.8581 41.4667 16.2005 41.9484 15.6016C42.4432 14.9896 42.9576 14.4688 43.4914 14.0391C44.0383 13.5964 44.5982 13.2513 45.1711 13.0039C45.757 12.7565 46.3234 12.6328 46.8703 12.6328C47.8208 12.6328 48.6021 12.7826 49.2141 13.082C49.8391 13.3815 50.3339 13.7526 50.6984 14.1953C51.063 14.638 51.3169 15.1133 51.4602 15.6211C51.6164 16.1159 51.6945 16.5651 51.6945 16.9688C51.6945 17.3594 51.5969 17.8086 51.4016 18.3164C51.2193 18.8112 50.9133 19.2865 50.4836 19.7422C50.0539 20.1849 49.494 20.5625 48.8039 20.875C48.1138 21.1745 47.2674 21.3242 46.2648 21.3242C45.731 21.3242 45.2492 21.2526 44.8195 21.1094C44.4029 20.9531 44.0318 20.7643 43.7062 20.543C43.3807 20.3086 43.1008 20.0612 42.8664 19.8008C42.6451 19.5273 42.4562 19.2734 42.3 19.0391C42.0656 19.8464 41.9484 20.7904 41.9484 21.8711C41.9484 22.6133 42.0526 23.2839 42.2609 23.8828C42.4823 24.4688 42.7818 24.9701 43.1594 25.3867C43.537 25.8034 43.9862 26.1224 44.507 26.3438C45.0279 26.5651 45.6008 26.6758 46.2258 26.6758C47.007 26.6758 47.6906 26.5456 48.2766 26.2852C48.8625 26.0117 49.3703 25.6732 49.8 25.2695C50.2427 24.8659 50.6203 24.4297 50.9328 23.9609C51.2583 23.4792 51.5383 23.043 51.7727 22.6523C52.007 22.2487 52.2089 21.9167 52.3781 21.6562C52.5604 21.3958 52.7362 21.2721 52.9055 21.2852C52.9836 21.2852 53.0227 21.3503 53.0227 21.4805C53.0227 21.5456 53.0161 21.6107 53.0031 21.6758C52.9901 21.7409 52.9706 21.806 52.9445 21.8711ZM47.0656 14.6055C46.8312 14.6055 46.5253 14.6576 46.1477 14.7617C45.7831 14.8529 45.3924 15.0221 44.9758 15.2695C44.5721 15.5169 44.1685 15.8555 43.7648 16.2852C43.3612 16.7018 43.0096 17.2357 42.7102 17.8867C42.8924 17.7956 43.0487 17.7174 43.1789 17.6523C43.3221 17.5872 43.4198 17.5547 43.4719 17.5547C43.4979 17.5547 43.537 17.5807 43.5891 17.6328C43.8885 18.1406 44.2596 18.5052 44.7023 18.7266C45.1581 18.9349 45.6659 19.0391 46.2258 19.0391C46.6685 19.0391 47.0461 18.9674 47.3586 18.8242C47.6841 18.668 47.951 18.4727 48.1594 18.2383C48.3677 18.0039 48.5174 17.75 48.6086 17.4766C48.6997 17.1901 48.7453 16.9102 48.7453 16.6367C48.7453 16.0508 48.5956 15.569 48.2961 15.1914C47.9966 14.8008 47.5865 14.6055 47.0656 14.6055ZM66.9344 28.1602C66.9344 28.3164 66.8758 28.4922 66.7586 28.6875C66.6544 28.8698 66.4982 28.9609 66.2898 28.9609C66.1727 28.9609 66.0815 28.9284 66.0164 28.8633C65.9513 28.7982 65.8862 28.7656 65.8211 28.7656C65.7299 28.7656 65.6388 28.7982 65.5477 28.8633C65.4695 28.9284 65.3328 28.9609 65.1375 28.9609C64.8771 28.9609 64.6492 28.8698 64.4539 28.6875C64.2716 28.4922 64.1219 28.2513 64.0047 27.9648C63.8875 27.6654 63.7964 27.3464 63.7313 27.0078C63.6792 26.6562 63.6531 26.3307 63.6531 26.0312C63.6531 25.4453 63.6727 24.7812 63.7117 24.0391C63.7638 23.2839 63.8159 22.5156 63.868 21.7344C63.9331 20.9401 63.9852 20.1523 64.0242 19.3711C64.0763 18.5898 64.1023 17.8672 64.1023 17.2031C64.1023 16.3177 64.0438 15.6276 63.9266 15.1328C63.8094 14.638 63.601 14.3906 63.3016 14.3906C63.0151 14.4297 62.7221 14.6771 62.4227 15.1328C62.1232 15.5885 61.8172 16.1745 61.5047 16.8906C61.1922 17.5938 60.8862 18.3945 60.5867 19.293C60.2872 20.1784 59.9943 21.0898 59.7078 22.0273C59.4344 22.9518 59.174 23.8568 58.9266 24.7422C58.6792 25.6146 58.4578 26.3958 58.2625 27.0859C58.0672 27.776 57.8979 28.3359 57.7547 28.7656C57.6115 29.1823 57.5138 29.3906 57.4617 29.3906C57.3576 29.3906 57.2794 29.3646 57.2273 29.3125C57.1753 29.2734 57.1232 29.2279 57.0711 29.1758C57.032 29.1237 56.9799 29.0716 56.9148 29.0195C56.8497 28.9805 56.7521 28.9609 56.6219 28.9609C56.5047 28.9609 56.4266 28.974 56.3875 29C56.3484 29.026 56.3029 29.0586 56.2508 29.0977C56.1987 29.1367 56.1336 29.1693 56.0555 29.1953C55.9773 29.2214 55.8406 29.2344 55.6453 29.2344C55.4109 29.2344 55.1766 29.1758 54.9422 29.0586C54.7208 28.9414 54.6102 28.7591 54.6102 28.5117C54.6102 28.3555 54.6362 28.0365 54.6883 27.5547C54.7404 27.0599 54.799 26.4609 54.8641 25.7578C54.9422 25.0417 55.0203 24.2474 55.0984 23.375C55.1896 22.4896 55.2677 21.5781 55.3328 20.6406C55.4109 19.7031 55.476 18.7656 55.5281 17.8281C55.5802 16.8906 55.6063 15.9987 55.6063 15.1523C55.6063 14.7357 55.5997 14.3516 55.5867 14C55.5737 13.6354 55.5672 13.2904 55.5672 12.9648C55.5672 12.8867 55.6063 12.8477 55.6844 12.8477C55.8406 12.8477 55.9578 12.8802 56.0359 12.9453C56.1271 12.9974 56.1922 13.056 56.2313 13.1211C56.2703 13.1862 56.2898 13.2513 56.2898 13.3164C56.3029 13.3685 56.3159 13.3945 56.3289 13.3945C56.368 13.3945 56.4135 13.375 56.4656 13.3359C56.5177 13.2839 56.5698 13.2318 56.6219 13.1797C56.687 13.1276 56.7456 13.082 56.7977 13.043C56.8497 12.9909 56.8953 12.9648 56.9344 12.9648H57.1297C57.325 12.9648 57.4617 12.9388 57.5398 12.8867C57.618 12.8216 57.6701 12.7565 57.6961 12.6914C57.7352 12.6133 57.7612 12.5482 57.7742 12.4961C57.7872 12.431 57.8263 12.3984 57.8914 12.3984C57.9305 12.3984 57.9826 12.431 58.0477 12.4961C58.1258 12.5482 58.1974 12.6458 58.2625 12.7891C58.3406 12.9193 58.4057 13.0951 58.4578 13.3164C58.5099 13.5378 58.5359 13.8047 58.5359 14.1172C58.5359 14.5339 58.5164 15.0612 58.4773 15.6992C58.4513 16.3372 58.4122 17.0208 58.3602 17.75C58.3211 18.4661 58.282 19.1953 58.243 19.9375C58.2039 20.6667 58.1779 21.3307 58.1648 21.9297C58.3081 21.3698 58.4773 20.7513 58.6727 20.0742C58.881 19.3841 59.1154 18.6875 59.3758 17.9844C59.6492 17.2812 59.9422 16.5977 60.2547 15.9336C60.5672 15.2565 60.9057 14.6576 61.2703 14.1367C61.6349 13.6159 62.019 13.1992 62.4227 12.8867C62.8263 12.5612 63.2495 12.3984 63.6922 12.3984C64.3953 12.3984 64.9682 12.5286 65.4109 12.7891C65.8667 13.0495 66.2247 13.4076 66.4852 13.8633C66.7456 14.319 66.9214 14.8529 67.0125 15.4648C67.1167 16.0768 67.1688 16.7344 67.1688 17.4375C67.1688 18.0365 67.1427 18.668 67.0906 19.332C67.0385 19.9831 66.9799 20.6406 66.9148 21.3047C66.8628 21.9557 66.8107 22.6003 66.7586 23.2383C66.7195 23.8763 66.7 24.4753 66.7 25.0352C66.7 25.7253 66.7391 26.3503 66.8172 26.9102C66.8953 27.457 66.9344 27.8737 66.9344 28.1602ZM75.3969 6.03125C75.3969 6.10938 75.3839 6.31771 75.3578 6.65625C75.3318 6.98177 75.2927 7.41797 75.2406 7.96484C75.2016 8.51172 75.1495 9.14974 75.0844 9.87891C75.0193 10.5951 74.9542 11.3698 74.8891 12.2031C75.7094 12.099 76.4841 12.0208 77.2133 11.9688C77.9555 11.9036 78.5805 11.8711 79.0883 11.8711C79.2576 11.8711 79.4073 11.9036 79.5375 11.9688C79.6677 12.0339 79.7719 12.112 79.85 12.2031C79.9411 12.2812 80.0128 12.3724 80.0648 12.4766C80.1169 12.5677 80.1495 12.6458 80.1625 12.7109C80.1625 12.776 80.169 12.8411 80.182 12.9062C80.1951 12.9583 80.2016 13.0169 80.2016 13.082C80.2016 13.3424 80.0844 13.6029 79.85 13.8633C79.6286 14.1237 79.2901 14.2865 78.8344 14.3516L74.6742 14.8008C74.6091 15.7383 74.5505 16.7018 74.4984 17.6914C74.4464 18.681 74.3943 19.6706 74.3422 20.6602C74.3031 21.6367 74.2706 22.6003 74.2445 23.5508C74.2185 24.5013 74.2055 25.3997 74.2055 26.2461C74.2055 26.793 74.2185 27.2357 74.2445 27.5742C74.2706 27.9128 74.2836 28.1341 74.2836 28.2383C74.2836 28.4596 74.238 28.681 74.1469 28.9023C74.0687 29.1107 73.9711 29.2995 73.8539 29.4688C73.7497 29.651 73.6326 29.7943 73.5023 29.8984C73.3852 30.0156 73.2875 30.0742 73.2094 30.0742C72.7406 30.0742 72.3695 29.9245 72.0961 29.625C71.8227 29.3385 71.6143 28.9479 71.4711 28.4531C71.3409 27.9583 71.2562 27.3919 71.2172 26.7539C71.1781 26.1159 71.1586 25.4518 71.1586 24.7617C71.1586 23.1341 71.2042 21.5065 71.2953 19.8789C71.3865 18.2383 71.5167 16.6628 71.6859 15.1523L69.2445 15.4453C69.2055 15.4453 69.1664 15.4518 69.1273 15.4648C69.0883 15.4779 69.0427 15.4844 68.9906 15.4844C68.7432 15.4844 68.5479 15.4258 68.4047 15.3086C68.2484 15.1914 68.1312 15.0547 68.0531 14.8984C67.975 14.7422 67.9294 14.5859 67.9164 14.4297C67.8904 14.2604 67.8773 14.1302 67.8773 14.0391C67.8773 13.8568 67.9034 13.6875 67.9555 13.5312C68.0076 13.375 68.1052 13.2773 68.2484 13.2383C68.5219 13.1341 68.9971 13.0234 69.6742 12.9062C70.3643 12.776 71.1391 12.6458 71.9984 12.5156C72.1417 11.4609 72.2849 10.4974 72.4281 9.625C72.5844 8.73958 72.7341 7.97786 72.8773 7.33984C73.0206 6.6888 73.1508 6.1875 73.268 5.83594C73.3982 5.47135 73.5089 5.28906 73.6 5.28906C73.626 5.28906 73.6586 5.29557 73.6977 5.30859C73.7367 5.32161 73.7693 5.32812 73.7953 5.32812C73.8734 5.32812 73.932 5.28906 73.9711 5.21094C74.0232 5.11979 74.1143 5.07422 74.2445 5.07422C74.3617 5.07422 74.4854 5.11328 74.6156 5.19141C74.7589 5.25651 74.8826 5.34115 74.9867 5.44531C75.1039 5.54948 75.2016 5.66016 75.2797 5.77734C75.3578 5.88151 75.3969 5.96615 75.3969 6.03125ZM91.2031 13.6484C91.2422 13.7266 91.2617 13.8047 91.2617 13.8828C91.2747 13.9609 91.2812 14.0521 91.2812 14.1562C91.2812 14.5729 91.0599 15.0091 90.6172 15.4648C90.1875 15.9206 89.5039 16.3372 88.5664 16.7148C88.3711 16.793 88.1953 16.832 88.0391 16.832C87.8438 16.832 87.6745 16.7799 87.5312 16.6758C87.401 16.5586 87.3359 16.4414 87.3359 16.3242C87.3359 16.2461 87.3815 16.1549 87.4727 16.0508C87.5768 15.9466 87.681 15.8424 87.7852 15.7383C87.9023 15.6341 88.0065 15.5365 88.0977 15.4453C88.2018 15.3542 88.2539 15.2826 88.2539 15.2305C88.2539 15.1263 88.1693 15.0742 88 15.0742C87.7396 15.0742 87.4076 15.1523 87.0039 15.3086C86.6003 15.4518 86.1706 15.6471 85.7148 15.8945C85.2721 16.1289 84.8164 16.3893 84.3477 16.6758C83.8919 16.9492 83.4818 17.2227 83.1172 17.4961C82.7526 17.7565 82.4531 17.9909 82.2188 18.1992C81.9974 18.4076 81.8867 18.5573 81.8867 18.6484C81.8867 18.7005 81.9388 18.7266 82.043 18.7266H82.6094C82.9609 18.7266 83.4102 18.7461 83.957 18.7852C84.5169 18.8242 85.1029 18.9023 85.7148 19.0195C86.3268 19.1237 86.9388 19.2799 87.5508 19.4883C88.1758 19.6836 88.7292 19.9505 89.2109 20.2891C89.7057 20.6276 90.1094 21.0378 90.4219 21.5195C90.7344 22.0013 90.8906 22.5742 90.8906 23.2383C90.8906 23.5768 90.832 23.9414 90.7148 24.332C90.6107 24.7096 90.4154 25.1003 90.1289 25.5039C89.8555 25.8945 89.4779 26.2982 88.9961 26.7148C88.5143 27.1185 87.9023 27.5221 87.1602 27.9258C86.0404 28.5247 84.9922 28.9674 84.0156 29.2539C83.0521 29.5404 82.1797 29.6836 81.3984 29.6836C80.3828 29.6836 79.582 29.4557 78.9961 29C78.4102 28.5443 78.1172 27.8932 78.1172 27.0469C78.1172 26.4219 78.2344 25.888 78.4688 25.4453C78.7161 25.0026 79.0026 24.638 79.3281 24.3516C79.6536 24.0521 79.9792 23.8372 80.3047 23.707C80.6302 23.5638 80.8776 23.4857 81.0469 23.4727C81.125 23.4727 81.1901 23.4661 81.2422 23.4531C81.3073 23.4401 81.3724 23.4336 81.4375 23.4336C81.5547 23.4336 81.6133 23.5052 81.6133 23.6484V23.8438C81.6133 23.9219 81.6328 23.9935 81.6719 24.0586C81.7109 24.1107 81.7305 24.1693 81.7305 24.2344C81.7305 24.3125 81.6328 24.4297 81.4375 24.5859C81.2552 24.7422 81.0534 24.9245 80.832 25.1328C80.6107 25.3411 80.4023 25.5625 80.207 25.7969C80.0247 26.0312 79.9336 26.2591 79.9336 26.4805C79.9336 26.7409 80.1419 26.8711 80.5586 26.8711C81.0794 26.8711 81.6263 26.7734 82.1992 26.5781C82.7852 26.3698 83.3516 26.1094 83.8984 25.7969C84.4583 25.4844 84.9857 25.1328 85.4805 24.7422C85.9883 24.3385 86.431 23.9479 86.8086 23.5703C87.1862 23.1927 87.4857 22.8411 87.707 22.5156C87.9284 22.1771 88.0391 21.9102 88.0391 21.7148C88.0391 21.4805 87.9023 21.2917 87.6289 21.1484C87.3685 21.0052 87.0039 20.888 86.5352 20.7969C86.0794 20.7057 85.5456 20.6471 84.9336 20.6211C84.3216 20.582 83.6771 20.5625 83 20.5625C82.2969 20.5625 81.7109 20.5951 81.2422 20.6602C80.7865 20.7253 80.5065 20.7578 80.4023 20.7578C80.3242 20.7578 80.194 20.7513 80.0117 20.7383C79.8424 20.7122 79.6667 20.6536 79.4844 20.5625C79.3151 20.4583 79.1654 20.3086 79.0352 20.1133C78.9049 19.918 78.8398 19.638 78.8398 19.2734C78.8398 19.026 78.8919 18.7461 78.9961 18.4336C79.1133 18.1211 79.3086 17.7891 79.582 17.4375C79.8685 17.0729 80.2526 16.6823 80.7344 16.2656C81.2292 15.849 81.8542 15.4128 82.6094 14.957C83.4036 14.4753 84.1458 14.0846 84.8359 13.7852C85.5391 13.4727 86.1706 13.2318 86.7305 13.0625C87.3034 12.8932 87.8047 12.7826 88.2344 12.7305C88.6641 12.6654 89.0026 12.6328 89.25 12.6328C89.8359 12.6328 90.2721 12.7109 90.5586 12.8672C90.8451 13.0104 91.0599 13.2708 91.2031 13.6484ZM106.736 20.7578C106.736 22.125 106.534 23.3555 106.13 24.4492C105.74 25.543 105.199 26.474 104.509 27.2422C103.832 28.0104 103.045 28.6029 102.146 29.0195C101.248 29.4362 100.297 29.6445 99.2945 29.6445C98.8779 29.6445 98.4221 29.5924 97.9273 29.4883C97.4326 29.3971 96.9378 29.2409 96.443 29.0195C95.9482 28.7982 95.4664 28.5052 94.9977 28.1406C94.5289 27.776 94.1122 27.3268 93.7477 26.793C93.3831 26.2591 93.0901 25.6341 92.8688 24.918C92.6604 24.2018 92.5628 23.375 92.5758 22.4375C92.5758 21.3698 92.706 20.3997 92.9664 19.5273C93.2268 18.6419 93.5589 17.8542 93.9625 17.1641C94.3792 16.4609 94.8479 15.8555 95.3688 15.3477C95.8896 14.8398 96.4104 14.4167 96.9313 14.0781C97.4521 13.7266 97.9534 13.4661 98.4352 13.2969C98.9169 13.1276 99.3336 13.0299 99.6852 13.0039C99.8674 12.9909 99.9456 13.0104 99.9195 13.0625C99.9065 13.1146 99.8609 13.1732 99.7828 13.2383C99.7047 13.3034 99.6331 13.3685 99.568 13.4336C99.5159 13.4987 99.5419 13.5378 99.6461 13.5508C99.7372 13.5768 99.8089 13.6029 99.8609 13.6289C99.926 13.6549 99.9911 13.6875 100.056 13.7266L100.213 13.5508C100.304 13.4857 100.388 13.4531 100.466 13.4531C100.558 13.4531 100.636 13.4661 100.701 13.4922C100.766 13.5052 100.818 13.5117 100.857 13.5117C100.896 13.5117 100.922 13.4727 100.935 13.3945C100.961 13.2513 101.007 13.1732 101.072 13.1602C101.15 13.1341 101.319 13.1211 101.58 13.1211C101.736 13.1211 101.97 13.1667 102.283 13.2578C102.608 13.349 102.96 13.5052 103.338 13.7266C103.728 13.9479 104.119 14.2474 104.509 14.625C104.913 14.9896 105.278 15.4583 105.603 16.0312C105.942 16.5911 106.215 17.2617 106.423 18.043C106.632 18.8242 106.736 19.7292 106.736 20.7578ZM99.6852 15.0352C99.2294 15.3086 98.7802 15.6797 98.3375 16.1484C97.8948 16.6172 97.4911 17.1576 97.1266 17.7695C96.775 18.3815 96.4885 19.0651 96.2672 19.8203C96.0458 20.5755 95.9352 21.3698 95.9352 22.2031C95.9352 23.1016 96.0133 23.9154 96.1695 24.6445C96.3388 25.3737 96.5797 25.9987 96.8922 26.5195C97.2047 27.0273 97.5823 27.4245 98.025 27.7109C98.4807 27.9844 98.9951 28.1211 99.568 28.1211C100.076 28.1211 100.577 27.9779 101.072 27.6914C101.58 27.4049 102.029 26.9753 102.42 26.4023C102.81 25.8294 103.123 25.1198 103.357 24.2734C103.604 23.4271 103.728 22.444 103.728 21.3242C103.728 20.1914 103.578 19.2409 103.279 18.4727C102.979 17.7044 102.641 17.0859 102.263 16.6172C101.899 16.1354 101.547 15.7969 101.209 15.6016C100.87 15.3932 100.662 15.2891 100.584 15.2891C100.401 15.2891 100.258 15.2891 100.154 15.2891C100.063 15.2891 99.9065 15.2044 99.6852 15.0352ZM118.421 14.957C118.408 15.3346 118.369 15.7122 118.304 16.0898C118.252 16.4544 118.174 16.806 118.07 17.1445C117.965 17.4701 117.835 17.763 117.679 18.0234C117.536 18.2839 117.373 18.4922 117.191 18.6484C117.034 18.7786 116.911 18.8438 116.82 18.8438C116.728 18.8438 116.65 18.8177 116.585 18.7656C116.533 18.7135 116.488 18.6549 116.448 18.5898C116.409 18.5247 116.357 18.4857 116.292 18.4727C116.24 18.4596 116.168 18.4661 116.077 18.4922C115.999 18.5052 115.915 18.5052 115.823 18.4922C115.745 18.4792 115.667 18.4336 115.589 18.3555C115.524 18.2643 115.478 18.1081 115.452 17.8867C115.426 17.6393 115.433 17.3203 115.472 16.9297C115.524 16.526 115.55 16.1354 115.55 15.7578C115.55 15.4193 115.511 15.1393 115.433 14.918C115.368 14.6836 115.244 14.5664 115.062 14.5664C114.971 14.5664 114.808 14.638 114.573 14.7812C114.352 14.9115 114.105 15.1979 113.831 15.6406C113.558 16.0833 113.284 16.7279 113.011 17.5742C112.738 18.4076 112.516 19.5208 112.347 20.9141C112.347 22.7109 112.36 24.1562 112.386 25.25C112.412 26.3438 112.425 27.1966 112.425 27.8086C112.425 28.3294 112.412 28.7005 112.386 28.9219C112.36 29.1432 112.295 29.2865 112.191 29.3516C112.126 29.3906 111.995 29.4362 111.8 29.4883C111.618 29.5534 111.416 29.612 111.195 29.6641C110.986 29.7161 110.784 29.7617 110.589 29.8008C110.394 29.8398 110.27 29.8529 110.218 29.8398C110.179 29.8268 110.107 29.7812 110.003 29.7031C109.899 29.638 109.788 29.5534 109.671 29.4492C109.567 29.3451 109.469 29.2344 109.378 29.1172C109.287 29.013 109.235 28.9219 109.222 28.8438C109.196 28.7135 109.183 28.4206 109.183 27.9648C109.196 27.4961 109.202 26.9362 109.202 26.2852C109.215 25.6341 109.228 24.9245 109.241 24.1562C109.254 23.375 109.261 22.6003 109.261 21.832C109.261 21.3372 109.274 20.7904 109.3 20.1914C109.339 19.5794 109.378 18.9609 109.417 18.3359C109.469 17.7109 109.521 17.099 109.573 16.5C109.626 15.901 109.671 15.3672 109.71 14.8984C109.762 14.4167 109.801 14.0195 109.827 13.707C109.866 13.3815 109.892 13.1862 109.905 13.1211C109.918 13.0169 109.964 12.9779 110.042 13.0039C110.133 13.0299 110.224 13.0755 110.316 13.1406C110.42 13.2057 110.511 13.2643 110.589 13.3164C110.667 13.3685 110.719 13.3685 110.745 13.3164C110.771 13.1992 110.869 13.1862 111.038 13.2773C111.208 13.3555 111.364 13.4466 111.507 13.5508C111.559 13.6159 111.618 13.6745 111.683 13.7266C111.761 13.7656 111.833 13.8242 111.898 13.9023C111.963 13.9674 112.015 14.0586 112.054 14.1758C112.106 14.293 112.132 14.4492 112.132 14.6445C112.132 14.8268 112.145 15.1003 112.171 15.4648C112.197 15.8294 112.23 16.2591 112.269 16.7539C112.412 16.2852 112.581 15.7904 112.777 15.2695C112.985 14.7487 113.232 14.2734 113.519 13.8438C113.805 13.401 114.144 13.0365 114.534 12.75C114.925 12.4635 115.394 12.3203 115.941 12.3203C116.24 12.3203 116.54 12.3789 116.839 12.4961C117.139 12.6133 117.405 12.7891 117.64 13.0234C117.887 13.2448 118.083 13.5182 118.226 13.8438C118.369 14.1693 118.434 14.5404 118.421 14.957ZM136.298 13.082C136.259 13.1471 136.122 13.3685 135.887 13.7461C135.666 14.1107 135.38 14.5794 135.028 15.1523C134.677 15.7122 134.273 16.3568 133.817 17.0859C133.374 17.8021 132.912 18.5508 132.43 19.332C131.962 20.1003 131.493 20.8685 131.024 21.6367C130.555 22.4049 130.113 23.1276 129.696 23.8047C129.292 24.4688 128.941 25.0612 128.641 25.582C128.342 26.1029 128.121 26.4935 127.977 26.7539C127.834 27.0143 127.632 27.418 127.372 27.9648C127.111 28.5117 126.812 29.1367 126.473 29.8398C126.135 30.556 125.77 31.3242 125.38 32.1445C125.002 32.9648 124.618 33.7852 124.227 34.6055C123.85 35.4388 123.479 36.2396 123.114 37.0078C122.762 37.7891 122.443 38.4857 122.157 39.0977C121.884 39.7096 121.656 40.2109 121.473 40.6016C121.291 41.0052 121.187 41.2461 121.161 41.3242C121.044 41.6237 120.933 41.806 120.829 41.8711C120.738 41.9492 120.601 42.0078 120.419 42.0469C120.328 42.0599 120.256 42.0339 120.204 41.9688C120.152 41.9036 120.106 41.8255 120.067 41.7344C120.028 41.6432 119.989 41.5586 119.95 41.4805C119.911 41.4154 119.865 41.3763 119.813 41.3633C119.644 41.3372 119.546 41.2982 119.52 41.2461C119.507 41.207 119.468 41.1224 119.403 40.9922C119.364 40.9401 119.325 40.9076 119.286 40.8945C119.247 40.8945 119.208 40.8945 119.169 40.8945C119.13 40.8945 119.104 40.888 119.091 40.875C119.065 40.862 119.052 40.8229 119.052 40.7578C119.078 40.5365 119.097 40.3151 119.11 40.0938C119.136 39.8724 119.169 39.6706 119.208 39.4883C119.247 39.3451 119.377 39.0456 119.598 38.5898C119.833 38.1341 120.119 37.5742 120.458 36.9102C120.796 36.2591 121.174 35.5299 121.591 34.7227C122.02 33.9284 122.45 33.1146 122.88 32.2812C123.322 31.4609 123.752 30.6471 124.169 29.8398C124.598 29.0326 124.983 28.2969 125.321 27.6328C125.152 27.2682 124.924 26.7995 124.637 26.2266C124.351 25.6406 124.039 24.9961 123.7 24.293C123.361 23.5768 122.997 22.8216 122.606 22.0273C122.229 21.2331 121.858 20.4453 121.493 19.6641C121.128 18.8828 120.777 18.1276 120.438 17.3984C120.1 16.6693 119.8 16.0182 119.54 15.4453C119.292 14.8594 119.097 14.3776 118.954 14C118.811 13.6094 118.739 13.3685 118.739 13.2773C118.752 13.1211 118.785 13.0169 118.837 12.9648C118.889 12.8997 118.96 12.8672 119.052 12.8672C119.13 12.8672 119.214 12.8867 119.305 12.9258C119.41 12.9648 119.514 13.0039 119.618 13.043C119.774 13.1081 119.924 13.1732 120.067 13.2383C120.21 13.2904 120.315 13.2643 120.38 13.1602C120.419 13.056 120.529 13.0039 120.712 13.0039C120.894 12.9909 121.044 13.0169 121.161 13.082C121.2 13.1211 121.233 13.1341 121.259 13.1211C121.298 13.1081 121.33 13.082 121.356 13.043C121.395 13.0039 121.434 12.9648 121.473 12.9258C121.526 12.8737 121.584 12.8346 121.649 12.8086C121.792 12.7826 121.923 12.8086 122.04 12.8867C122.157 12.9648 122.268 13.1341 122.372 13.3945C122.437 13.5898 122.567 13.9284 122.762 14.4102C122.971 14.8919 123.212 15.4518 123.485 16.0898C123.772 16.7279 124.084 17.418 124.423 18.1602C124.761 18.8893 125.1 19.612 125.438 20.3281C125.777 21.0312 126.096 21.6953 126.395 22.3203C126.708 22.9453 126.981 23.4661 127.216 23.8828C127.567 23.2318 127.945 22.5417 128.348 21.8125C128.765 21.0703 129.182 20.3346 129.598 19.6055C130.028 18.8633 130.451 18.1406 130.868 17.4375C131.285 16.7344 131.675 16.0833 132.04 15.4844C132.417 14.8854 132.749 14.3646 133.036 13.9219C133.322 13.4661 133.557 13.1211 133.739 12.8867C133.843 12.7565 133.895 12.6719 133.895 12.6328C133.895 12.5938 133.947 12.5547 134.052 12.5156C134.13 12.4896 134.195 12.4635 134.247 12.4375C134.312 12.4115 134.41 12.4115 134.54 12.4375C134.657 12.4635 134.748 12.4766 134.813 12.4766C134.878 12.4766 134.93 12.5156 134.97 12.5938C134.996 12.6328 135.035 12.6458 135.087 12.6328C135.139 12.6198 135.197 12.6003 135.262 12.5742C135.341 12.5352 135.419 12.5026 135.497 12.4766C135.575 12.4375 135.653 12.4245 135.731 12.4375C135.822 12.4505 135.914 12.4701 136.005 12.4961C136.096 12.5091 136.174 12.5417 136.239 12.5938C136.317 12.6458 136.363 12.7109 136.376 12.7891C136.389 12.8672 136.363 12.9648 136.298 13.082Z" fill="black"/>
</svg>
